<mxfile host="Electron" modified="2024-07-07T16:21:39.430Z" agent="Mozilla/5.0 (Windows NT 10.0; Win64; x64) AppleWebKit/537.36 (KHTML, like Gecko) draw.io/24.6.4 Chrome/124.0.6367.207 Electron/30.0.6 Safari/537.36" etag="KD1FwtgIxRieIX7qkP2x" version="24.6.4" type="device">
  <diagram name="Page-1" id="5ewEk7VhULhhektikduO">
    <mxGraphModel dx="1434" dy="836" grid="1" gridSize="10" guides="1" tooltips="1" connect="1" arrows="1" fold="1" page="1" pageScale="1" pageWidth="1100" pageHeight="850" math="0" shadow="0">
      <root>
        <mxCell id="0" />
        <mxCell id="1" parent="0" />
        <mxCell id="Gw__zOjoAv4Q2wYq-lLn-2" value="" style="rounded=0;whiteSpace=wrap;html=1;" vertex="1" parent="1">
          <mxGeometry x="170" y="230" width="730" height="330" as="geometry" />
        </mxCell>
        <mxCell id="Gw__zOjoAv4Q2wYq-lLn-1" value="&lt;font style=&quot;font-size: 70px;&quot; face=&quot;Lucida Handwriting&quot;&gt;Talha Siddiqui&lt;/font&gt;" style="text;html=1;align=center;verticalAlign=middle;whiteSpace=wrap;rounded=0;" vertex="1" parent="1">
          <mxGeometry x="230" y="345" width="610" height="100" as="geometry" />
        </mxCell>
      </root>
    </mxGraphModel>
  </diagram>
</mxfile>
